# xmcd CD database file
#
# Track frame offsets:
#	150
#	12340
#	28537
#	42802
#	56455
#	72642
#	86600
#	103272
#	118402
#	134345
#	149222
#	163300
#	175320
#	192570
#	207177
#	223292
#	236577
#	252677
#	269442
#	284905
#	306530
#
# Disc length: 4310 seconds
#
# Revision: 2
# Processed by: cddbd v1.5.2PL0 Copyright (c) Steve Scherf et al.
# Submitted via: CDex 1.70beta2
#
DISCID=6910d415
DTITLE=Diverse - It´s Coutry Time CD 3
DYEAR=2001
DGENRE=Country
TTITLE0=Tom Astor - Hallo, guten Morgen Deutschland
TTITLE1=Tom Astor - Junger Adler
TTITLE2=Tom Astor - Take it easy, nimms leicht
TTITLE3=Tom Astor - Ich bin wie ich bin
TTITLE4=Tom Astor - Und ich seh´ die Trucks vorüberzieh´n
TTITLE5=Tom Astor - Du bist da
TTITLE6=Tom Astor - Freundschaft
TTITLE7=Tom Astor - ...und ich bin dein Freund
TTITLE8=Tom Astor - Der Wind wird sich bald wieder drehen
TTITLE9=Tom Astor - Renovier´ deine Seele
TTITLE10=Tom Astor - Ich bin kein Dichter, kein Poet
TTITLE11=Tom Astor - Freunde
TTITLE12=Linda Feller - Du bist das Salz in der Suppe
TTITLE13=Linda Feller - Appartment
TTITLE14=Linda Feller - Engel lieben meist die Falschen
TTITLE15=Linda Feller - Ich weiß genau was ich will
TTITLE16=Linda Feller - Andre Mütter haben auch ein schönes Kind
TTITLE17=Larry Schuba and Western Union - Ich möcht so gern mal nach Nashville
TTITLE18=Larry Schuba and Western Union - Auf der Autobahn
TTITLE19=Larry Schuba and Western Union - L.I.E.B.E.
TTITLE20=Larry Schuba and Western Union - Danke
EXTD=YEAR: 2001
EXTT0=
EXTT1=
EXTT2=
EXTT3=
EXTT4=
EXTT5=
EXTT6=
EXTT7=
EXTT8=
EXTT9=
EXTT10=
EXTT11=
EXTT12=
EXTT13=
EXTT14=
EXTT15=
EXTT16=
EXTT17=
EXTT18=
EXTT19=
EXTT20=
PLAYORDER=
